<mxfile host="app.diagrams.net" modified="2021-07-31T09:53:58.692Z" agent="5.0 (Windows NT 10.0; Win64; x64) AppleWebKit/537.36 (KHTML, like Gecko) Chrome/92.0.4515.107 Safari/537.36" etag="bNDsNoTGMlNVV3oLwn_c" version="14.9.3" type="github">
  <diagram id="HIuWvSE9vmMZxRI0H-S6" name="Page-1">
    <mxGraphModel dx="782" dy="446" grid="1" gridSize="10" guides="1" tooltips="1" connect="1" arrows="1" fold="1" page="1" pageScale="1" pageWidth="827" pageHeight="1169" math="0" shadow="0">
      <root>
        <mxCell id="0" />
        <mxCell id="1" parent="0" />
        <mxCell id="havYF9tnz6DcYyGENd3f-1" value="" style="rounded=0;whiteSpace=wrap;html=1;" vertex="1" parent="1">
          <mxGeometry x="140" y="50" width="120" height="200" as="geometry" />
        </mxCell>
        <mxCell id="havYF9tnz6DcYyGENd3f-2" value="" style="rounded=0;whiteSpace=wrap;html=1;" vertex="1" parent="1">
          <mxGeometry x="390" y="50" width="120" height="200" as="geometry" />
        </mxCell>
        <mxCell id="havYF9tnz6DcYyGENd3f-3" value="HTTP Client&lt;br&gt;" style="rounded=0;whiteSpace=wrap;html=1;fillColor=#dae8fc;strokeColor=#6c8ebf;fontStyle=1;verticalAlign=top;" vertex="1" parent="1">
          <mxGeometry x="150" y="60" width="100" height="50" as="geometry" />
        </mxCell>
        <mxCell id="havYF9tnz6DcYyGENd3f-4" value="HTTP Server" style="rounded=0;whiteSpace=wrap;html=1;fillColor=#dae8fc;strokeColor=#6c8ebf;fontStyle=1;verticalAlign=top;" vertex="1" parent="1">
          <mxGeometry x="400" y="60" width="100" height="50" as="geometry" />
        </mxCell>
        <mxCell id="havYF9tnz6DcYyGENd3f-5" value="TCP/IP Stack" style="rounded=0;whiteSpace=wrap;html=1;fillColor=#fff2cc;strokeColor=#d6b656;fontStyle=1" vertex="1" parent="1">
          <mxGeometry x="150" y="160" width="100" height="80" as="geometry" />
        </mxCell>
        <mxCell id="havYF9tnz6DcYyGENd3f-6" value="" style="endArrow=none;dashed=1;html=1;" edge="1" parent="1">
          <mxGeometry width="50" height="50" relative="1" as="geometry">
            <mxPoint x="140" y="154" as="sourcePoint" />
            <mxPoint x="260" y="154" as="targetPoint" />
          </mxGeometry>
        </mxCell>
        <mxCell id="havYF9tnz6DcYyGENd3f-7" value="TCP/IP Stack" style="rounded=0;whiteSpace=wrap;html=1;fillColor=#fff2cc;strokeColor=#d6b656;fontStyle=1" vertex="1" parent="1">
          <mxGeometry x="400" y="160" width="100" height="80" as="geometry" />
        </mxCell>
        <mxCell id="havYF9tnz6DcYyGENd3f-8" value="" style="endArrow=none;dashed=1;html=1;" edge="1" parent="1">
          <mxGeometry width="50" height="50" relative="1" as="geometry">
            <mxPoint x="390" y="154" as="sourcePoint" />
            <mxPoint x="510" y="154" as="targetPoint" />
          </mxGeometry>
        </mxCell>
        <mxCell id="havYF9tnz6DcYyGENd3f-9" value="Application level" style="text;html=1;strokeColor=none;fillColor=none;align=center;verticalAlign=middle;whiteSpace=wrap;rounded=0;" vertex="1" parent="1">
          <mxGeometry x="70" y="125" width="60" height="20" as="geometry" />
        </mxCell>
        <mxCell id="havYF9tnz6DcYyGENd3f-10" value="Operating system level" style="text;html=1;strokeColor=none;fillColor=none;align=center;verticalAlign=middle;whiteSpace=wrap;rounded=0;" vertex="1" parent="1">
          <mxGeometry x="70" y="200" width="50" height="20" as="geometry" />
        </mxCell>
        <mxCell id="havYF9tnz6DcYyGENd3f-11" value="socket interface" style="rounded=0;whiteSpace=wrap;html=1;verticalAlign=middle;fillColor=#d5e8d4;strokeColor=none;fontStyle=1" vertex="1" parent="1">
          <mxGeometry x="150" y="90" width="100" height="20" as="geometry" />
        </mxCell>
        <mxCell id="havYF9tnz6DcYyGENd3f-12" value="socket interface" style="rounded=0;whiteSpace=wrap;html=1;verticalAlign=middle;fillColor=#d5e8d4;strokeColor=none;fontStyle=1" vertex="1" parent="1">
          <mxGeometry x="400" y="90" width="100" height="20" as="geometry" />
        </mxCell>
        <mxCell id="havYF9tnz6DcYyGENd3f-14" value="TCP/IP connection" style="text;html=1;strokeColor=none;fillColor=none;align=center;verticalAlign=middle;whiteSpace=wrap;rounded=0;" vertex="1" parent="1">
          <mxGeometry x="300" y="177" width="50" height="20" as="geometry" />
        </mxCell>
        <mxCell id="havYF9tnz6DcYyGENd3f-15" value="socket" style="rounded=0;whiteSpace=wrap;html=1;verticalAlign=middle;fillColor=#e1d5e7;strokeColor=#9673a6;fontStyle=1" vertex="1" parent="1">
          <mxGeometry x="150" y="160" width="100" height="20" as="geometry" />
        </mxCell>
        <mxCell id="havYF9tnz6DcYyGENd3f-16" value="socket" style="rounded=0;whiteSpace=wrap;html=1;verticalAlign=middle;fillColor=#e1d5e7;strokeColor=#9673a6;fontStyle=1" vertex="1" parent="1">
          <mxGeometry x="400" y="160" width="100" height="20" as="geometry" />
        </mxCell>
        <mxCell id="havYF9tnz6DcYyGENd3f-17" value="" style="endArrow=classic;startArrow=classic;html=1;exitX=1;exitY=0.5;exitDx=0;exitDy=0;" edge="1" parent="1" source="havYF9tnz6DcYyGENd3f-5">
          <mxGeometry width="50" height="50" relative="1" as="geometry">
            <mxPoint x="280" y="250" as="sourcePoint" />
            <mxPoint x="401" y="200" as="targetPoint" />
          </mxGeometry>
        </mxCell>
        <mxCell id="havYF9tnz6DcYyGENd3f-18" value="" style="endArrow=classic;html=1;entryX=0.75;entryY=1;entryDx=0;entryDy=0;exitX=0.75;exitY=0;exitDx=0;exitDy=0;" edge="1" parent="1" source="havYF9tnz6DcYyGENd3f-16" target="havYF9tnz6DcYyGENd3f-12">
          <mxGeometry width="50" height="50" relative="1" as="geometry">
            <mxPoint x="480" y="160" as="sourcePoint" />
            <mxPoint x="480" y="120" as="targetPoint" />
          </mxGeometry>
        </mxCell>
        <mxCell id="havYF9tnz6DcYyGENd3f-20" value="" style="endArrow=classic;html=1;exitX=0.75;exitY=0;exitDx=0;exitDy=0;" edge="1" parent="1">
          <mxGeometry width="50" height="50" relative="1" as="geometry">
            <mxPoint x="430" y="110" as="sourcePoint" />
            <mxPoint x="430" y="160" as="targetPoint" />
          </mxGeometry>
        </mxCell>
        <mxCell id="havYF9tnz6DcYyGENd3f-22" value="read" style="text;html=1;strokeColor=none;fillColor=none;align=center;verticalAlign=middle;whiteSpace=wrap;rounded=0;" vertex="1" parent="1">
          <mxGeometry x="465" y="125" width="50" height="20" as="geometry" />
        </mxCell>
        <mxCell id="havYF9tnz6DcYyGENd3f-23" value="write" style="text;html=1;strokeColor=none;fillColor=none;align=center;verticalAlign=middle;whiteSpace=wrap;rounded=0;" vertex="1" parent="1">
          <mxGeometry x="389" y="124" width="50" height="20" as="geometry" />
        </mxCell>
        <mxCell id="havYF9tnz6DcYyGENd3f-25" value="read" style="text;html=1;strokeColor=none;fillColor=none;align=center;verticalAlign=middle;whiteSpace=wrap;rounded=0;" vertex="1" parent="1">
          <mxGeometry x="216" y="126" width="50" height="20" as="geometry" />
        </mxCell>
        <mxCell id="havYF9tnz6DcYyGENd3f-26" value="write" style="text;html=1;strokeColor=none;fillColor=none;align=center;verticalAlign=middle;whiteSpace=wrap;rounded=0;" vertex="1" parent="1">
          <mxGeometry x="140" y="125" width="50" height="20" as="geometry" />
        </mxCell>
        <mxCell id="havYF9tnz6DcYyGENd3f-27" value="" style="endArrow=classic;html=1;entryX=0.75;entryY=1;entryDx=0;entryDy=0;exitX=0.75;exitY=0;exitDx=0;exitDy=0;" edge="1" parent="1">
          <mxGeometry width="50" height="50" relative="1" as="geometry">
            <mxPoint x="225" y="161" as="sourcePoint" />
            <mxPoint x="225" y="111" as="targetPoint" />
          </mxGeometry>
        </mxCell>
        <mxCell id="havYF9tnz6DcYyGENd3f-28" value="" style="endArrow=classic;html=1;exitX=0.75;exitY=0;exitDx=0;exitDy=0;" edge="1" parent="1">
          <mxGeometry width="50" height="50" relative="1" as="geometry">
            <mxPoint x="180" y="111" as="sourcePoint" />
            <mxPoint x="180" y="161" as="targetPoint" />
          </mxGeometry>
        </mxCell>
      </root>
    </mxGraphModel>
  </diagram>
</mxfile>
